<?xml version="1.0" standalone="no"?>
<!DOCTYPE svg PUBLIC "-//W3C//DTD SVG 20010904//EN"
 "http://www.w3.org/TR/2001/REC-SVG-20010904/DTD/svg10.dtd">
<svg version="1.0" xmlns="http://www.w3.org/2000/svg"
 width="500.000000pt" height="500.000000pt" viewBox="0 0 500.000000 500.000000"
 preserveAspectRatio="xMidYMid meet">
<metadata>
Created by potrace 1.11, written by Peter Selinger 2001-2013
</metadata>
<g transform="translate(0.000000,500.000000) scale(0.100000,-0.100000)"
fill="#000000" stroke="none">
<path d="M2229 3166 c-2 -2 -28 -7 -57 -10 -120 -14 -252 -77 -345 -165 -77
-72 -158 -208 -173 -288 -2 -12 -8 -33 -13 -46 -10 -25 -8 -215 2 -256 47
-186 168 -341 329 -421 46 -22 93 -43 106 -45 12 -3 32 -8 45 -11 12 -4 65 -8
119 -10 77 -3 113 1 181 20 49 14 90 20 98 15 57 -31 234 -47 327 -29 313 62
523 319 517 630 -9 417 -429 715 -820 581 -47 -16 -52 -16 -95 0 -25 9 -70 20
-100 24 -30 3 -69 8 -86 10 -18 2 -33 2 -35 1z"/>
<path d="M2002 1713 c-37 -18 -72 -73 -72 -111 0 -126 134 -187 228 -104 46
40 51 135 10 179 -48 52 -107 65 -166 36z"/>
<path d="M2465 1721 c-87 -36 -111 -151 -45 -220 87 -91 244 -16 227 110 -11
87 -103 142 -182 110z"/>
<path d="M2879 1714 c-85 -35 -102 -159 -30 -221 35 -31 86 -39 135 -22 52 19
80 57 82 117 3 67 -19 103 -79 130 -36 16 -63 15 -108 -4z"/>
</g>
</svg>
