<svg id="Layer_1" data-name="Layer 1" xmlns="http://www.w3.org/2000/svg" viewBox="0 0 200 200"><defs><style>.cls-1{fill:#54c1de;}</style></defs><title>tech_</title><path class="cls-1" d="M149.43,56.07h0c-1.64-.56-3.29-1.07-4.94-1.55.28-1.12.53-2.24.76-3.37,3.74-18.14,1.3-32.76-7-37.57-8-4.62-21.1.19-34.31,11.7-1.3,1.13-2.58,2.3-3.82,3.5-.83-.8-1.68-1.58-2.54-2.35C83.68,14.13,69.79,9,61.45,13.78c-8,4.63-10.36,18.36-7,35.56.34,1.71.72,3.4,1.14,5.09-2,.55-3.87,1.15-5.68,1.78C33.67,61.87,23.3,70.74,23.3,80c0,9.51,11.13,19,28.05,24.82,1.37.47,2.76.9,4.15,1.3q-.68,2.73-1.2,5.48c-3.21,16.9-.7,30.31,7.27,34.91,8.24,4.75,22.06-.13,35.52-11.89,1.06-.93,2.13-1.92,3.2-2.95q2,1.95,4.14,3.78c13,11.22,25.91,15.75,33.88,11.14,8.23-4.76,10.9-19.17,7.43-36.71-.26-1.35-.58-2.71-.92-4.11,1-.28,1.93-.58,2.85-.88,17.59-5.83,29-15.25,29-24.89C176.7,70.71,166,61.77,149.43,56.07ZM108.19,30.22c11.33-9.86,21.92-13.75,26.73-11h0c5.14,3,7.14,14.91,3.91,30.57-.21,1-.44,2-.69,3.05a158.38,158.38,0,0,0-20.51-3.24,154.61,154.61,0,0,0-13-16.18Q106.39,31.8,108.19,30.22ZM68.59,87.81q2.09,4,4.36,7.94t4.81,7.88c-5-.57-9.76-1.33-14.14-2.28C65,97,66.65,92.43,68.59,87.81Zm0-15.41c-1.91-4.53-3.54-9-4.88-13.27,4.38-1,9.05-1.78,13.91-2.39q-2.45,3.81-4.7,7.73T68.59,72.4Zm3.48,7.71q3-6.31,6.53-12.37h0Q82.1,61.68,86,55.9c4.56-.35,9.24-.53,14-.53s9.44.18,14,.53q3.9,5.76,7.39,11.8T128,80q-3.07,6.33-6.59,12.42h0q-3.48,6.06-7.36,11.87c-4.56.33-9.26.5-14,.5s-9.42-.15-13.89-.44q-4-5.8-7.5-11.9T72.07,80.11Zm55,15.59q2.33-4,4.45-8.13h0a138.19,138.19,0,0,1,5.15,13.5,141.64,141.64,0,0,1-14.3,2.44Q124.81,99.64,127.08,95.7Zm4.39-23.3q-2.13-4-4.42-8h0q-2.25-3.89-4.66-7.67c4.89.62,9.59,1.44,14,2.45A139.76,139.76,0,0,1,131.47,72.4Zm-31.4-34.26a137.67,137.67,0,0,1,9,10.9Q100,48.61,91,49C94,45.1,97,41.45,100.07,38.14ZM64.74,19.44c5.13-3,16.48,1.27,28.44,11.89.76.68,1.53,1.39,2.3,2.13A156.07,156.07,0,0,0,82.41,49.63a160,160,0,0,0-20.47,3.18c-.39-1.56-.74-3.14-1.06-4.72h0C58,33.35,59.92,22.24,64.74,19.44ZM57.26,99.75c-1.28-.36-2.54-.75-3.79-1.19C46,96,39.81,92.68,35.57,89.06c-3.8-3.26-5.73-6.49-5.73-9.12,0-5.58,8.33-12.71,22.22-17.55q2.63-.91,5.28-1.67A156.5,156.5,0,0,0,64.81,80.1,162.12,162.12,0,0,0,57.26,99.75Zm35.51,29.88c-6,5.2-11.91,8.89-17.17,10.74h0c-4.72,1.67-8.48,1.72-10.75.41C60,138,58,127.21,60.74,112.76q.49-2.57,1.12-5.1a151.77,151.77,0,0,0,20.67,3A157.28,157.28,0,0,0,95.7,126.92C94.74,127.85,93.77,128.76,92.77,129.63Zm7.48-7.41c-3.1-3.35-6.2-7-9.23-11q4.41.16,9,.17t9.26-.21A139.08,139.08,0,0,1,100.25,122.22Zm39.8,9.12c-.91,4.92-2.76,8.21-5,9.52-4.83,2.8-15.18-.84-26.32-10.43-1.28-1.1-2.57-2.28-3.86-3.52a155.46,155.46,0,0,0,12.86-16.33,151,151,0,0,0,20.77-3.21c.32,1.27.59,2.51.83,3.71h0C140.85,118.84,141.06,125.86,140.05,131.34Zm5.56-32.73h0c-.84.27-1.7.55-2.58.8A153.18,153.18,0,0,0,135.26,80a153.84,153.84,0,0,0,7.47-19.15q2.36.68,4.56,1.44c14.2,4.88,22.85,12.11,22.85,17.68C170.15,85.88,160.79,93.58,145.61,98.61Z"/><path class="cls-1" d="M99.93,93.65A13.7,13.7,0,1,0,86.23,80,13.69,13.69,0,0,0,99.93,93.65Z"/><path class="cls-1" d="M66,187.9l-5.25-7.52a8,8,0,0,1-1,0H53.93v7.48H49.16V162.23H59.72c6.74,0,10.92,3.45,10.92,9.13a8.2,8.2,0,0,1-5.46,8.1l5.9,8.43H66Zm-6.46-21.63H53.91V176.5h5.58c4.18,0,6.34-1.91,6.34-5.13S63.67,166.27,59.49,166.27Z"/><path class="cls-1" d="M93.84,179.58H78.48c.55,2.85,2.93,4.69,6.34,4.69a7,7,0,0,0,5.32-2.13L92.59,185c-1.76,2.1-4.51,3.2-7.88,3.2-6.56,0-10.82-4.22-10.82-10A9.74,9.74,0,0,1,84,168.1c5.73,0,9.9,4,9.9,10.12C93.91,178.59,93.88,179.14,93.84,179.58Zm-15.39-3.05h11.1A5.33,5.33,0,0,0,84,171.76,5.41,5.41,0,0,0,78.45,176.53Z"/><path class="cls-1" d="M114.15,176.43v11.48h-4.32v-2.39c-1.1,1.69-3.23,2.64-6.16,2.64-4.47,0-7.3-2.45-7.3-5.87,0-3.26,2.2-5.83,8.15-5.83h5.06v-.29c0-2.68-1.62-4.25-4.88-4.25a9.67,9.67,0,0,0-5.93,1.94L97,170.53a13.72,13.72,0,0,1,8.29-2.42C110.89,168.1,114.15,170.78,114.15,176.43Zm-4.58,5.34V179.5h-4.73c-3.11,0-4,1.18-4,2.6,0,1.65,1.39,2.71,3.74,2.71A5,5,0,0,0,109.57,181.77Z"/><path class="cls-1" d="M118.59,178.11c0-5.87,4.4-10,10.59-10,3.81,0,6.86,1.58,8.36,4.55l-3.52,2a5.55,5.55,0,0,0-4.87-2.72,6.13,6.13,0,0,0,0,12.25,5.53,5.53,0,0,0,4.87-2.71l3.52,2c-1.5,2.94-4.55,4.59-8.36,4.59C123,188.16,118.59,184,118.59,178.11Z"/><path class="cls-1" d="M153.53,186.83a7.16,7.16,0,0,1-4.4,1.33c-4.29,0-6.75-2.28-6.75-6.6v-9.42h-3.22v-3.67h3.22V164H147v4.47h5.25v3.66H147v9.31c0,1.9,1,2.93,2.72,2.93a4.09,4.09,0,0,0,2.56-.8Z"/></svg>