<svg id="Layer_1" data-name="Layer 1" xmlns="http://www.w3.org/2000/svg" viewBox="0 0 200 200"><defs><style>.cls-1{fill:#54c1de;}</style></defs><title>tech_</title><path class="cls-1" d="M150,56.75h0c-1.66-.57-3.32-1.09-5-1.57.28-1.14.54-2.27.78-3.41,3.78-18.35,1.3-33.14-7.14-38-8.09-4.67-21.33.19-34.7,11.83-1.32,1.15-2.61,2.34-3.87,3.55-.84-.81-1.7-1.6-2.57-2.38C83.49,14.32,69.44,9.07,61,14c-8.09,4.68-10.48,18.58-7.08,36,.34,1.73.73,3.44,1.15,5.15q-3,.84-5.75,1.8c-16.43,5.73-26.92,14.71-26.92,24,0,9.62,11.26,19.27,28.38,25.12,1.38.47,2.78.9,4.2,1.31q-.69,2.76-1.22,5.54c-3.25,17.1-.71,30.67,7.36,35.33,8.33,4.8,22.31-.14,35.93-12,1.08-.94,2.16-1.94,3.23-3,1.37,1.32,2.77,2.59,4.2,3.83,13.18,11.35,26.21,15.93,34.27,11.26,8.33-4.81,11-19.39,7.52-37.14-.27-1.36-.59-2.74-.93-4.15,1-.29,2-.59,2.88-.9C166,100.2,177.6,90.67,177.6,80.92,177.6,71.56,166.77,62.52,150,56.75ZM108.29,30.6c11.46-10,22.17-13.91,27-11.1h0c5.2,3,7.22,15.09,4,30.94-.21,1-.45,2.06-.7,3.08a160.12,160.12,0,0,0-20.75-3.27,157.35,157.35,0,0,0-13.11-16.38C105.89,32.75,107.07,31.66,108.29,30.6ZM68.23,88.86q2.11,4.06,4.4,8t4.88,8a142.92,142.92,0,0,1-14.31-2.3C64.57,98.14,66.26,93.54,68.23,88.86Zm0-15.59c-1.92-4.58-3.58-9.08-4.93-13.43,4.43-1,9.15-1.8,14.07-2.41q-2.48,3.84-4.76,7.82C71.09,67.89,69.62,70.56,68.22,73.27Zm3.53,7.8q3.06-6.39,6.6-12.52h0q3.54-6.12,7.53-12C90.49,56.22,95.22,56,100,56s9.54.18,14.15.54q3.95,5.84,7.48,11.93T128.33,81q-3.12,6.39-6.67,12.56h0q-3.52,6.14-7.45,12c-4.6.33-9.36.49-14.21.49s-9.53-.14-14-.44q-4-5.86-7.58-12C76,89.49,73.79,85.31,71.75,81.07ZM127.4,96.84q2.34-4.07,4.5-8.22h0a138.15,138.15,0,0,1,5.21,13.65,139,139,0,0,1-14.47,2.47Q125.1,100.84,127.4,96.84Zm4.44-23.57q-2.16-4.08-4.47-8.07h0c-1.52-2.62-3.08-5.21-4.72-7.76,4.95.63,9.7,1.46,14.15,2.48A141.1,141.1,0,0,1,131.84,73.27ZM100.08,38.61a140.72,140.72,0,0,1,9.13,11q-9.18-.42-18.35,0C93.89,45.65,97,42,100.08,38.61ZM64.33,19.69c5.19-3,16.67,1.28,28.77,12,.77.69,1.55,1.41,2.33,2.15A159.75,159.75,0,0,0,82.21,50.23,163.18,163.18,0,0,0,61.5,53.45c-.39-1.58-.75-3.18-1.07-4.78h0C57.52,33.76,59.45,22.52,64.33,19.69Zm-7.56,81.25q-1.94-.54-3.84-1.2c-7.56-2.59-13.81-5.95-18.1-9.61C31,86.83,29,83.56,29,80.9,29,75.25,37.46,68,51.51,63.14c1.77-.61,3.55-1.18,5.34-1.68a159.76,159.76,0,0,0,7.56,19.6A163.26,163.26,0,0,0,56.77,100.94Zm35.92,30.22c-6,5.27-12,9-17.37,10.88h0c-4.78,1.69-8.58,1.73-10.88.41-4.9-2.82-6.93-13.73-4.16-28.35.33-1.73.71-3.44,1.14-5.15a155.11,155.11,0,0,0,20.91,3,161,161,0,0,0,13.32,16.46C94.68,129.37,93.7,130.29,92.69,131.16Zm7.57-7.49c-3.14-3.39-6.27-7.13-9.34-11.17,3,.12,6,.17,9.08.17s6.29-.07,9.37-.21A138.75,138.75,0,0,1,100.26,123.67Zm40.26,9.22c-.92,5-2.79,8.31-5.08,9.64-4.89,2.83-15.35-.85-26.63-10.56q-1.94-1.66-3.9-3.56a156,156,0,0,0,13-16.52,154.91,154.91,0,0,0,21-3.24c.31,1.28.59,2.53.83,3.76h0C141.33,120.26,141.55,127.35,140.52,132.89Zm5.63-33.11h0c-.85.28-1.72.56-2.61.82a155.16,155.16,0,0,0-7.85-19.66,155.86,155.86,0,0,0,7.55-19.38q2.38.69,4.61,1.46C162.22,68,171,75.27,171,80.9,171,86.9,161.51,94.7,146.15,99.78Z"/><path class="cls-1" d="M100,94.77A13.86,13.86,0,1,0,86.15,80.91,13.86,13.86,0,0,0,100,94.77Z"/><path class="cls-1" d="M19.84,187.79l-4.16-6a7,7,0,0,1-.79,0H10.28v5.94H6.5V167.4h8.39c5.36,0,8.68,2.74,8.68,7.25a6.53,6.53,0,0,1-4.34,6.44l4.69,6.69H19.84Zm-5.13-17.18H10.28v8.12h4.43c3.32,0,5-1.51,5-4.08S18,170.61,14.71,170.61Z"/><path class="cls-1" d="M42,181.18H29.8c.44,2.27,2.33,3.73,5,3.73a5.6,5.6,0,0,0,4.22-1.69L41,185.46A7.88,7.88,0,0,1,34.74,188c-5.21,0-8.59-3.34-8.59-8a7.74,7.74,0,0,1,8-7.95c4.54,0,7.86,3.17,7.86,8A10.53,10.53,0,0,1,42,181.18Zm-12.23-2.42H38.6A4.23,4.23,0,0,0,34.2,175,4.31,4.31,0,0,0,29.77,178.76Z"/><path class="cls-1" d="M58.14,178.67v9.12H54.7V185.9c-.87,1.33-2.56,2.09-4.9,2.09-3.55,0-5.79-2-5.79-4.66s1.74-4.63,6.46-4.63h4v-.23c0-2.12-1.28-3.38-3.88-3.38a7.8,7.8,0,0,0-4.72,1.54L44.46,174a11,11,0,0,1,6.59-1.92C55.55,172.06,58.14,174.19,58.14,178.67Zm-3.65,4.25v-1.81H50.74c-2.48,0-3.15.94-3.15,2.07,0,1.31,1.11,2.15,3,2.15A3.93,3.93,0,0,0,54.49,182.92Z"/><path class="cls-1" d="M61.66,180c0-4.66,3.5-7.95,8.42-7.95,3,0,5.44,1.25,6.64,3.6l-2.8,1.64A4.41,4.41,0,0,0,70,175.14a4.87,4.87,0,0,0,0,9.74,4.42,4.42,0,0,0,3.88-2.15l2.8,1.63A7.09,7.09,0,0,1,70.08,188C65.16,188,61.66,184.67,61.66,180Z"/><path class="cls-1" d="M89.41,187a5.75,5.75,0,0,1-3.49,1c-3.41,0-5.36-1.8-5.36-5.24v-7.48H78v-2.91h2.56v-3.55H84.2v3.55h4.17v2.91H84.2v7.4c0,1.51.76,2.33,2.15,2.33a3.31,3.31,0,0,0,2-.64Z"/><path class="cls-1" d="M118.92,167.4v20.39H115.8L104.56,174v13.81h-3.75V167.4h3.11l11.24,13.81V167.4Z"/><path class="cls-1" d="M137.06,178.67v9.12h-3.43V185.9c-.88,1.33-2.56,2.09-4.9,2.09-3.55,0-5.8-2-5.8-4.66s1.75-4.63,6.47-4.63h4v-.23c0-2.12-1.28-3.38-3.87-3.38a7.78,7.78,0,0,0-4.72,1.54L123.39,174a11,11,0,0,1,6.59-1.92C134.48,172.06,137.06,174.19,137.06,178.67Zm-3.63,4.25v-1.81h-3.76c-2.47,0-3.14.94-3.14,2.07,0,1.31,1.1,2.15,3,2.15A3.94,3.94,0,0,0,133.43,182.92Z"/><path class="cls-1" d="M151.07,187a5.75,5.75,0,0,1-3.49,1c-3.41,0-5.36-1.8-5.36-5.24v-7.48h-2.56v-2.91h2.56v-3.55h3.64v3.55H150v2.91h-4.17v7.4c0,1.51.76,2.33,2.16,2.33a3.33,3.33,0,0,0,2-.64Z"/><path class="cls-1" d="M153.58,167.49a2.22,2.22,0,0,1,2.33-2.19,2.16,2.16,0,0,1,2.32,2.1,2.33,2.33,0,0,1-4.65.09Zm.49,4.75h3.64v15.55h-3.64Z"/><path class="cls-1" d="M177.06,172.24l-6.67,15.55h-3.76L160,172.24h3.79l4.83,11.53,5-11.53Z"/><path class="cls-1" d="M193.45,181.18h-12.2c.43,2.27,2.33,3.73,5,3.73a5.57,5.57,0,0,0,4.22-1.69l1.95,2.24a7.88,7.88,0,0,1-6.26,2.53c-5.21,0-8.59-3.34-8.59-8a7.74,7.74,0,0,1,8-7.95c4.54,0,7.86,3.17,7.86,8A10.53,10.53,0,0,1,193.45,181.18Zm-12.23-2.42h8.83a4.24,4.24,0,0,0-4.4-3.79A4.31,4.31,0,0,0,181.22,178.76Z"/></svg>