<svg id="Layer_1" data-name="Layer 1" xmlns="http://www.w3.org/2000/svg" viewBox="0 0 200 200"><defs><style>.cls-1{fill:#f6df19;}.cls-2{fill:#010101;}</style></defs><title>tech_</title><path class="cls-1" d="M20,20H180V180H20Z"/><path class="cls-2" d="M62.07,153.71l12.24-7.41C76.68,150.49,78.83,154,84,154c4.94,0,8.06-1.93,8.06-9.45V93.46h15v51.33c0,15.58-9.13,22.66-22.45,22.66-12,0-19-6.23-22.55-13.74"/><path class="cls-2" d="M115.24,152.1,127.48,145c3.22,5.26,7.41,9.13,14.82,9.13,6.23,0,10.21-3.12,10.21-7.41,0-5.16-4.09-7-11-10l-3.76-1.61c-10.85-4.62-18-10.42-18-22.66,0-11.28,8.59-19.87,22-19.87,9.55,0,16.43,3.33,21.37,12l-11.71,7.51c-2.58-4.61-5.37-6.44-9.66-6.44s-7.2,2.79-7.2,6.44c0,4.51,2.79,6.34,9.24,9.13l3.75,1.61c12.79,5.48,20,11.07,20,23.63,0,13.53-10.63,20.94-24.91,20.94-14,0-23-6.65-27.39-15.35"/></svg>