<svg id="Layer_1" data-name="Layer 1" xmlns="http://www.w3.org/2000/svg" xmlns:xlink="http://www.w3.org/1999/xlink" viewBox="0 0 200 200"><defs><style>.cls-1{fill:none;}.cls-2{clip-path:url(#clip-path);}.cls-3{fill:#da2228;}</style><clipPath id="clip-path"><rect class="cls-1" x="18.16" y="39.64" width="163.68" height="120.72"/></clipPath></defs><title>tech_</title><g class="cls-2"><path class="cls-3" d="M181.84,97.31v5.38c-.05.3-.12.58-.15.87-.28,2.35-.46,4.71-.85,7a57.18,57.18,0,0,1-8,21.09A59.89,59.89,0,0,1,148,154.21a58.17,58.17,0,0,1-19.17,5.66l-4.45.49H66.84a6.64,6.64,0,0,0-.87-.16,49.23,49.23,0,0,1-16.69-4,50.94,50.94,0,0,1-25.86-24.58,48.37,48.37,0,0,1-4.78-15.9l-.48-4v-5.23a6.64,6.64,0,0,0,.16-.87A48,48,0,0,1,21.47,91,50.86,50.86,0,0,1,47,63a49.67,49.67,0,0,1,20-5.16,55,55,0,0,1,10.26.47,1.29,1.29,0,0,0,1-.32A60.82,60.82,0,0,1,94.9,45.82a58.61,58.61,0,0,1,19.27-5.69c1.59-.18,3.19-.33,4.78-.49h4.9l1,.14c2.42.29,4.87.46,7.27.87a57.64,57.64,0,0,1,21,8,60,60,0,0,1,22.64,24.91,58,58,0,0,1,5.66,19.19c.18,1.53.32,3.07.49,4.61M90.32,62.44c.1.13.12.19.17.21a65.66,65.66,0,0,1,9.61,5.81,1,1,0,0,0,.9-.06,37.79,37.79,0,0,1,50.25,8.65,35.74,35.74,0,0,1,7.4,29.11,37.25,37.25,0,0,1-9.08,19.18c-9,9.93-20.26,14-33.53,12.3A35.47,35.47,0,0,1,95,127.15c-7.49-7.57-15-15.08-22.53-22.63a6.09,6.09,0,0,0-3.56-2A5.64,5.64,0,0,0,63,105.75a5.2,5.2,0,0,0,1.26,6.36c8.37,8.22,16.67,16.51,25,24.74a40.68,40.68,0,0,0,4.59,3.91,44.05,44.05,0,0,0,20.46,7.88,49.58,49.58,0,0,0,17.43-.69,49,49,0,0,0,37.58-57.18,46.91,46.91,0,0,0-11.05-22.65c-11-12.39-24.9-17.92-41.42-16.68a45.91,45.91,0,0,0-18,5.3,47,47,0,0,0-8.56,5.7m-4,86.45-.68-.63c-3.42-3.24-6.86-6.45-10.25-9.72a2.77,2.77,0,0,0-2.18-.92A41.79,41.79,0,0,1,62.94,137,28.63,28.63,0,0,1,74.3,80.86a27.68,27.68,0,0,1,15.51,8c5.25,5.41,10.65,10.67,16,16a4.78,4.78,0,0,0,4.27,1.54,5.36,5.36,0,0,0,4.66-3.46,5.1,5.1,0,0,0-1.18-5.66c-5.57-5.63-11-11.41-16.79-16.81C85.49,70.06,72.25,66.94,57.6,71.4a39.7,39.7,0,0,0,12.09,77.53H85.36c.26,0,.52,0,.92,0"/></g></svg>